<svg xmlns="http://www.w3.org/2000/svg" width="0" height="0">
  <defs>
    <!-- Player Tank (Teal) -->
    <symbol id="player-tank" viewBox="0 0 60 60">
      <!-- Tank Body -->
      <rect x="15" y="20" width="30" height="20" rx="3" fill="url(#tankGradient)" stroke="#0a5f4a" stroke-width="2"/>
      <!-- Tank Treads -->
      <rect x="13" y="18" width="34" height="4" rx="2" fill="#0d7a5f"/>
      <rect x="13" y="38" width="34" height="4" rx="2" fill="#0d7a5f"/>
      <!-- Turret -->
      <circle cx="30" cy="30" r="10" fill="url(#turretGradient)" stroke="#0a5f4a" stroke-width="2"/>
      <!-- Barrel -->
      <rect x="30" y="26" width="20" height="8" rx="2" fill="#16a085"/>
      <rect x="48" y="27" width="4" height="6" fill="#000"/>
      <!-- Gradient Definitions -->
      <linearGradient id="tankGradient" x1="0%" y1="0%" x2="0%" y2="100%">
        <stop offset="0%" style="stop-color:#22d3ee;stop-opacity:1" />
        <stop offset="50%" style="stop-color:#14b8a6;stop-opacity:1" />
        <stop offset="100%" style="stop-color:#0d9488;stop-opacity:1" />
      </linearGradient>
      <radialGradient id="turretGradient">
        <stop offset="0%" style="stop-color:#22d3ee;stop-opacity:1" />
        <stop offset="100%" style="stop-color:#0a5f4a;stop-opacity:1" />
      </radialGradient>
    </symbol>

    <!-- Enemy: Spam (Email Icon) -->
    <symbol id="enemy-spam" viewBox="0 0 40 40">
      <rect x="5" y="10" width="30" height="20" rx="2" fill="#ff6b9d" stroke="#ff4478" stroke-width="2"/>
      <path d="M5,10 L20,25 L35,10" fill="none" stroke="#ff4478" stroke-width="2"/>
      <circle cx="20" cy="20" r="15" fill="none" stroke="#ff8fab" stroke-width="1" opacity="0.3"/>
    </symbol>

    <!-- Enemy: Bot -->
    <symbol id="enemy-bot" viewBox="0 0 40 40">
      <rect x="10" y="15" width="20" height="15" rx="2" fill="#ff8fab" stroke="#ff6b9d" stroke-width="2"/>
      <circle cx="15" cy="22" r="2" fill="#fff"/>
      <circle cx="25" cy="22" r="2" fill="#fff"/>
      <rect x="18" y="27" width="4" height="2" fill="#ff6b9d"/>
      <rect x="15" y="10" width="3" height="5" fill="#ff8fab"/>
      <rect x="22" y="10" width="3" height="5" fill="#ff8fab"/>
    </symbol>

    <!-- Enemy: Fake News -->
    <symbol id="enemy-fakenews" viewBox="0 0 40 40">
      <rect x="8" y="10" width="24" height="20" rx="1" fill="#ff4478" stroke="#ff1744" stroke-width="2"/>
      <rect x="11" y="13" width="18" height="3" fill="#fff" opacity="0.8"/>
      <rect x="11" y="18" width="18" height="2" fill="#fff" opacity="0.6"/>
      <rect x="11" y="22" width="14" height="2" fill="#fff" opacity="0.6"/>
      <rect x="11" y="26" width="10" height="2" fill="#fff" opacity="0.6"/>
    </symbol>

    <!-- Enemy: Troll -->
    <symbol id="enemy-troll" viewBox="0 0 40 40">
      <circle cx="20" cy="20" r="15" fill="#ff5722" stroke="#e64a19" stroke-width="2"/>
      <circle cx="15" cy="17" r="2" fill="#ff0000"/>
      <circle cx="25" cy="17" r="2" fill="#ff0000"/>
      <path d="M13,25 Q20,30 27,25" fill="none" stroke="#ff0000" stroke-width="2"/>
      <polygon points="10,10 15,5 15,12" fill="#ff5722"/>
      <polygon points="30,10 25,5 25,12" fill="#ff5722"/>
    </symbol>

    <!-- Enemy: Deepfake -->
    <symbol id="enemy-deepfake" viewBox="0 0 40 40">
      <circle cx="20" cy="20" r="15" fill="#e91e63" stroke="#c2185b" stroke-width="2"/>
      <path d="M10,20 Q15,15 20,20 Q25,25 30,20" fill="none" stroke="#880e4f" stroke-width="2"/>
      <circle cx="14" cy="16" r="2" fill="#fff"/>
      <circle cx="26" cy="16" r="2" fill="#fff"/>
      <circle cx="14" cy="16" r="1" fill="#000"/>
      <circle cx="26" cy="16" r="1" fill="#000"/>
    </symbol>

    <!-- Enemy: Swarm -->
    <symbol id="enemy-swarm" viewBox="0 0 30 30">
      <circle cx="15" cy="15" r="8" fill="#ff8a9d" stroke="#ff6b9d" stroke-width="1.5"/>
      <path d="M8,15 L5,12 M22,15 L25,12 M8,15 L5,18 M22,15 L25,18" stroke="#ff8a9d" stroke-width="2"/>
      <circle cx="15" cy="15" r="3" fill="#fff" opacity="0.8"/>
    </symbol>

    <!-- Enemy: Shielder -->
    <symbol id="enemy-shielder" viewBox="0 0 50 50">
      <circle cx="25" cy="25" r="18" fill="#9c27b0" stroke="#7b1fa2" stroke-width="2"/>
      <path d="M25,10 L35,25 L25,40 L15,25 Z" fill="none" stroke="#64b5f6" stroke-width="3" opacity="0.7"/>
      <circle cx="25" cy="25" r="12" fill="#ab47bc" stroke="#8e24aa" stroke-width="2"/>
    </symbol>

    <!-- Enemy: Sniper -->
    <symbol id="enemy-sniper" viewBox="0 0 45 45">
      <circle cx="22.5" cy="22.5" r="14" fill="#673ab7" stroke="#512da8" stroke-width="2"/>
      <rect x="22" y="8" width="20" height="3" fill="#5e35b1"/>
      <circle cx="22.5" cy="22.5" r="8" fill="#7e57c2"/>
      <circle cx="22.5" cy="22.5" r="4" fill="#512da8"/>
      <line x1="40" y1="10" x2="44" y2="10" stroke="#512da8" stroke-width="2"/>
    </symbol>

    <!-- Enemy: Rusher -->
    <symbol id="enemy-rusher" viewBox="0 0 38 38">
      <circle cx="19" cy="19" r="12" fill="#f44336" stroke="#d32f2f" stroke-width="2"/>
      <path d="M5,19 L12,19 M26,19 L33,19" stroke="#ffcdd2" stroke-width="3" opacity="0.7"/>
      <path d="M19,5 L19,12 M19,26 L19,33" stroke="#ffcdd2" stroke-width="3" opacity="0.7"/>
      <circle cx="19" cy="19" r="6" fill="#e53935"/>
    </symbol>

    <!-- Enemy: Botnet -->
    <symbol id="enemy-botnet" viewBox="0 0 55 55">
      <circle cx="27.5" cy="27.5" r="20" fill="#3f51b5" stroke="#303f9f" stroke-width="2"/>
      <line x1="27.5" y1="27.5" x2="10" y2="10" stroke="#5c6bc0" stroke-width="2"/>
      <line x1="27.5" y1="27.5" x2="45" y2="10" stroke="#5c6bc0" stroke-width="2"/>
      <line x1="27.5" y1="27.5" x2="10" y2="45" stroke="#5c6bc0" stroke-width="2"/>
      <line x1="27.5" y1="27.5" x2="45" y2="45" stroke="#5c6bc0" stroke-width="2"/>
      <circle cx="10" cy="10" r="4" fill="#5c6bc0"/>
      <circle cx="45" cy="10" r="4" fill="#5c6bc0"/>
      <circle cx="10" cy="45" r="4" fill="#5c6bc0"/>
      <circle cx="45" cy="45" r="4" fill="#5c6bc0"/>
    </symbol>

    <!-- Enemy: Phantom -->
    <symbol id="enemy-phantom" viewBox="0 0 45 45">
      <circle cx="22.5" cy="22.5" r="16" fill="#00bcd4" stroke="#0097a7" stroke-width="2" opacity="0.8"/>
      <path d="M22.5,10 Q15,20 22.5,35 Q30,20 22.5,10" fill="#00acc1" opacity="0.6"/>
      <circle cx="18" cy="18" r="2" fill="#fff"/>
      <circle cx="27" cy="18" r="2" fill="#fff"/>
      <path d="M22.5,35 L17,40 L22.5,38 L28,40 Z" fill="#00acc1" opacity="0.6"/>
    </symbol>

    <!-- Enemy: Juggernaut -->
    <symbol id="enemy-juggernaut" viewBox="0 0 70 70">
      <rect x="15" y="20" width="40" height="30" rx="4" fill="#795548" stroke="#5d4037" stroke-width="3"/>
      <rect x="10" y="18" width="10" height="34" rx="2" fill="#6d4c41"/>
      <rect x="50" y="18" width="10" height="34" rx="2" fill="#6d4c41"/>
      <rect x="25" y="25" width="20" height="20" rx="2" fill="#8d6e63"/>
      <path d="M20,55 L20,60 L27,60 M50,55 L50,60 L43,60" stroke="#5d4037" stroke-width="3" fill="none"/>
    </symbol>

    <!-- Powerup: Health -->
    <symbol id="powerup-health" viewBox="0 0 35 35">
      <path d="M17.5,30 L7,19.5 Q5,17.5 5,14 Q5,10 8,7 Q11,4 14.5,4 Q17,4 17.5,6 Q18,4 20.5,4 Q24,4 27,7 Q30,10 30,14 Q30,17.5 28,19.5 Z" fill="#4caf50" stroke="#2e7d32" stroke-width="2"/>
      <circle cx="17.5" cy="17.5" r="16" fill="none" stroke="#81c784" stroke-width="1" opacity="0.4"/>
    </symbol>

    <!-- Powerup: Rapid Fire -->
    <symbol id="powerup-rapidfire" viewBox="0 0 35 35">
      <polygon points="17.5,5 22,15 32,17.5 22,20 17.5,30 13,20 3,17.5 13,15" fill="#ff9800" stroke="#f57c00" stroke-width="2"/>
      <circle cx="17.5" cy="17.5" r="16" fill="none" stroke="#ffb74d" stroke-width="1" opacity="0.4"/>
    </symbol>

    <!-- Powerup: Shield -->
    <symbol id="powerup-shield" viewBox="0 0 35 35">
      <path d="M17.5,5 L28,10 L28,20 Q28,28 17.5,32 Q7,28 7,20 L7,10 Z" fill="#2196f3" stroke="#1565c0" stroke-width="2"/>
      <path d="M17.5,8 L24,11 L24,19 Q24,25 17.5,28 Q11,25 11,19 L11,11 Z" fill="none" stroke="#64b5f6" stroke-width="1.5"/>
      <circle cx="17.5" cy="17.5" r="16" fill="none" stroke="#90caf9" stroke-width="1" opacity="0.4"/>
    </symbol>

    <!-- Powerup: Nuke -->
    <symbol id="powerup-nuke" viewBox="0 0 35 35">
      <circle cx="17.5" cy="17.5" r="12" fill="#f44336" stroke="#c62828" stroke-width="2"/>
      <circle cx="17.5" cy="17.5" r="8" fill="#ff5722"/>
      <circle cx="17.5" cy="17.5" r="4" fill="#ff9800"/>
      <circle cx="17.5" cy="17.5" r="16" fill="none" stroke="#ff8a80" stroke-width="1" opacity="0.4"/>
    </symbol>

    <!-- Powerup: Speed Boost -->
    <symbol id="powerup-speedboost" viewBox="0 0 35 35">
      <path d="M10,20 L15,12 L20,17.5 L25,10 L27,17.5 M5,17.5 L10,20 L15,17.5" fill="#9c27b0" stroke="#6a1b9a" stroke-width="2"/>
      <circle cx="17.5" cy="17.5" r="16" fill="none" stroke="#ba68c8" stroke-width="1" opacity="0.4"/>
    </symbol>

    <!-- Powerup: Spread Shot -->
    <symbol id="powerup-spreadshot" viewBox="0 0 35 35">
      <circle cx="17.5" cy="17.5" r="10" fill="#00bcd4" stroke="#00838f" stroke-width="2"/>
      <line x1="17.5" y1="7.5" x2="17.5" y2="2" stroke="#00acc1" stroke-width="2"/>
      <line x1="17.5" y1="27.5" x2="17.5" y2="33" stroke="#00acc1" stroke-width="2"/>
      <line x1="7.5" y1="17.5" x2="2" y2="17.5" stroke="#00acc1" stroke-width="2"/>
      <line x1="27.5" y1="17.5" x2="33" y2="17.5" stroke="#00acc1" stroke-width="2"/>
      <line x1="10" y1="10" x2="5" y2="5" stroke="#00acc1" stroke-width="2"/>
      <line x1="25" y1="25" x2="30" y2="30" stroke="#00acc1" stroke-width="2"/>
      <line x1="25" y1="10" x2="30" y2="5" stroke="#00acc1" stroke-width="2"/>
      <line x1="10" y1="25" x2="5" y2="30" stroke="#00acc1" stroke-width="2"/>
    </symbol>

    <!-- Boss Crown -->
    <symbol id="boss-crown" viewBox="0 0 40 30">
      <path d="M5,25 L8,15 L12,20 L20,10 L28,20 L32,15 L35,25 Z" fill="#ffd700" stroke="#ffa000" stroke-width="2"/>
      <circle cx="8" cy="15" r="3" fill="#ffeb3b"/>
      <circle cx="20" cy="10" r="3" fill="#ffeb3b"/>
      <circle cx="32" cy="15" r="3" fill="#ffeb3b"/>
    </symbol>
  </defs>
</svg>
