<svg xmlns="http://www.w3.org/2000/svg" viewBox="0 0 48 48">
  <defs>
    <linearGradient id="blade" x1="0%" y1="0%" x2="100%" y2="0%">
      <stop offset="0%" stop-color="#f8fafc"/>
      <stop offset="50%" stop-color="#a5f3fc"/>
      <stop offset="100%" stop-color="#0891b2"/>
    </linearGradient>
    <linearGradient id="bladeCore" x1="0%" y1="0%" x2="100%" y2="100%">
      <stop offset="0%" stop-color="#22d3ee"/>
      <stop offset="100%" stop-color="#0e7490"/>
    </linearGradient>
    <linearGradient id="handle" x1="0%" y1="0%" x2="100%" y2="100%">
      <stop offset="0%" stop-color="#7c3aed"/>
      <stop offset="100%" stop-color="#4c1d95"/>
    </linearGradient>
    <linearGradient id="gold" x1="0%" y1="0%" x2="100%" y2="100%">
      <stop offset="0%" stop-color="#fcd34d"/>
      <stop offset="100%" stop-color="#f59e0b"/>
    </linearGradient>
    <filter id="glow" x="-50%" y="-50%" width="200%" height="200%">
      <feGaussianBlur stdDeviation="2" result="blur"/>
      <feMerge><feMergeNode in="blur"/><feMergeNode in="SourceGraphic"/></feMerge>
    </filter>
  </defs>

  <!-- Energy aura -->
  <path d="M8 4 Q4 8 4 14" stroke="#22d3ee" stroke-width="2" fill="none" opacity="0.5" filter="url(#glow)"/>
  <path d="M12 2 Q6 8 6 16" stroke="#a5f3fc" stroke-width="1.5" fill="none" opacity="0.4"/>

  <!-- Katana blade - curved anime style -->
  <path d="M4 4 C6 4 8 6 10 8 L36 34 L34 38 L8 12 C6 10 4 8 4 6 Z" fill="url(#blade)" filter="url(#glow)"/>

  <!-- Blade edge glow -->
  <path d="M5 5 L35 35" stroke="#fff" stroke-width="1.5" opacity="0.9"/>

  <!-- Blood groove with glow -->
  <path d="M10 10 L32 32" stroke="url(#bladeCore)" stroke-width="2" opacity="0.8"/>

  <!-- Ornate guard (tsuba) -->
  <ellipse cx="36" cy="36" rx="5" ry="5" fill="#1e293b" stroke="url(#gold)" stroke-width="2"/>
  <circle cx="36" cy="36" r="2" fill="url(#bladeCore)"/>

  <!-- Handle wrap -->
  <path d="M39 39 L46 46" stroke="url(#handle)" stroke-width="5" stroke-linecap="round"/>
  <path d="M40 40 L41 41 M43 43 L44 44" stroke="#fcd34d" stroke-width="1.5"/>

  <!-- Pommel -->
  <circle cx="46" cy="46" r="2.5" fill="url(#gold)"/>

  <!-- Slash trail effects -->
  <path d="M14 6 Q10 10 8 16" stroke="#22d3ee" stroke-width="3" fill="none" opacity="0.6" filter="url(#glow)"/>
  <path d="M18 4 Q12 10 10 18" stroke="#a5f3fc" stroke-width="2" fill="none" opacity="0.4"/>
</svg>