<svg xmlns="http://www.w3.org/2000/svg" viewBox="0 0 60 70">
  <defs>
    <linearGradient id="pantsGrad" x1="0%" y1="0%" x2="0%" y2="100%">
      <stop offset="0%" stop-color="#1e293b"/>
      <stop offset="50%" stop-color="#0f172a"/>
      <stop offset="100%" stop-color="#020617"/>
    </linearGradient>
  </defs>
  <!-- Left leg -->
  <path d="M5 0 L5 5 Q2 35, 5 65 L18 70 L22 65 Q25 35, 22 5 L22 0 Z"
        fill="url(#pantsGrad)" stroke="#0d1117" stroke-width="2"/>
  <!-- Right leg -->
  <path d="M38 0 L38 5 Q35 35, 38 65 L42 70 L55 65 Q58 35, 55 5 L55 0 Z"
        fill="url(#pantsGrad)" stroke="#0d1117" stroke-width="2"/>
  <!-- Belt accent -->
  <rect x="5" y="0" width="50" height="6" rx="2" fill="#374151"/>
  <rect x="25" y="0" width="10" height="6" rx="1" fill="#22d3ee"/>
  <!-- Knee detail -->
  <ellipse cx="13" cy="35" rx="5" ry="8" fill="#0f172a" fill-opacity="0.5"/>
  <ellipse cx="47" cy="35" rx="5" ry="8" fill="#0f172a" fill-opacity="0.5"/>
  <!-- Shoe hint at bottom -->
  <ellipse cx="12" cy="68" rx="8" ry="4" fill="#1f2937"/>
  <ellipse cx="48" cy="68" rx="8" ry="4" fill="#1f2937"/>
</svg>
