<svg xmlns="http://www.w3.org/2000/svg" viewBox="0 0 512 512">
  <defs>
    <linearGradient id="wingDark" x1="0" y1="0" x2="1" y2="1">
      <stop offset="0" stop-color="#7c4dff" stop-opacity="0.9"/>
      <stop offset="1" stop-color="#ef4444" stop-opacity="0.85"/>
    </linearGradient>
    <linearGradient id="coreGlow" x1="0" y1="0" x2="0" y2="1">
      <stop offset="0" stop-color="#ef4444"/>
      <stop offset="1" stop-color="#7c4dff"/>
    </linearGradient>
  </defs>
  <style>
    .line { stroke: #0b0f18; stroke-width: 6; stroke-linecap: round; stroke-linejoin: round; }
    .skin { fill: #8a5b5b; }
    .hair { fill: #ef4444; }
    .body { fill: #2b1f2f; }
    .wing { fill: url(#wingDark); }
    .eye { fill: #ffd1d1; }
    .glow { fill: url(#coreGlow); opacity: 0.85; }
    .rune { stroke: #7c4dff; stroke-width: 4; stroke-linecap: round; }
  </style>
  <path class="wing line" d="M90 252c50-130 200-150 260-36-70 26-120 80-150 140-26 52-68 82-120 72-30-6-52-40-38-74 12-30 26-58 48-102z"/>
  <path class="wing line" d="M422 252c-50-130-200-150-260-36 70 26 120 80 150 140 26 52 68 82 120 72 30-6 52-40 38-74-12-30-26-58-48-102z"/>

  <circle class="skin line" cx="256" cy="188" r="66"/>
  <path class="hair line" d="M184 192c14-70 138-90 176-12-36-8-68 2-96 18-28 16-56 20-86 10-12-4-22-10-30-16z"/>
  <path class="hair line" d="M212 134l-14-30 38 12z"/>
  <path class="hair line" d="M300 134l14-30-38 12z"/>

  <circle class="eye" cx="236" cy="186" r="9"/>
  <circle class="eye" cx="276" cy="186" r="9"/>
  <path class="line" d="M232 218c18-14 30-14 48 0"/>

  <path class="body line" d="M206 260c34-26 92-26 116 0-12 74-26 138-58 188-32-50-44-114-58-188z"/>
  <circle class="glow" cx="256" cy="112" r="8"/>
  <path class="rune" d="M190 312l-20 20"/>
  <path class="rune" d="M322 312l20 20"/>
  <path class="rune" d="M220 340l18-18"/>
  <path class="rune" d="M274 340l18-18"/>
</svg>
