<svg xmlns="http://www.w3.org/2000/svg" viewBox="0 0 512 512">
  <defs>
    <linearGradient id="wingA" x1="0" y1="0" x2="1" y2="1">
      <stop offset="0" stop-color="#7c4dff"/>
      <stop offset="1" stop-color="#22d3a6"/>
    </linearGradient>
    <linearGradient id="wingB" x1="0" y1="0" x2="1" y2="0">
      <stop offset="0" stop-color="#f472b6" stop-opacity="0.6"/>
      <stop offset="1" stop-color="#7c4dff" stop-opacity="0.2"/>
    </linearGradient>
    <linearGradient id="dressGrad" x1="0" y1="0" x2="0" y2="1">
      <stop offset="0" stop-color="#22d3a6"/>
      <stop offset="1" stop-color="#128a7d"/>
    </linearGradient>
  </defs>
  <style>
    .line { stroke: #0b0f18; stroke-width: 6; stroke-linecap: round; stroke-linejoin: round; }
    .skin { fill: #f6c7a2; }
    .hair { fill: #8b5cf6; }
    .dress { fill: url(#dressGrad); }
    .wing { fill: url(#wingA); }
    .wing-inner { fill: url(#wingB); }
    .eye { fill: #0b0f18; }
    .spark { fill: #f472b6; }
  </style>

  <path class="wing line" d="M74 246c62-120 210-170 270-80-64 12-118 72-148 132-24 46-56 78-108 78-32 0-52-30-42-60 10-28 26-50 28-54z"/>
  <path class="wing line" d="M438 246c-62-120-210-170-270-80 64 12 118 72 148 132 24 46 56 78 108 78 32 0 52-30 42-60-10-28-26-50-28-54z"/>
  <path class="wing-inner" d="M128 258c38-68 120-96 160-46-40 16-74 54-94 94-16 32-36 50-66 50-16 0-28-16-22-32 4-14 10-28 22-66z"/>
  <path class="wing-inner" d="M384 258c-38-68-120-96-160-46 40 16 74 54 94 94 16 32 36 50 66 50 16 0 28-16 22-32-4-14-10-28-22-66z"/>

  <circle class="skin line" cx="256" cy="176" r="60"/>
  <path class="hair line" d="M188 176c10-60 120-82 156-10-30-6-56 2-82 16-26 14-50 18-76 10-12-4-22-10-28-16z"/>
  <circle class="eye" cx="234" cy="176" r="7"/>
  <circle class="eye" cx="278" cy="176" r="7"/>
  <path class="line" d="M236 204c12 10 28 10 40 0"/>

  <path class="skin line" d="M218 246c-10 24-16 56-14 88"/>
  <path class="skin line" d="M294 246c10 24 16 56 14 88"/>
  <path class="dress line" d="M214 244c30-22 74-22 98 0-10 74-24 140-56 190-32-50-46-116-42-190z"/>

  <path class="line" d="M304 306l64-38"/>
  <path class="line" d="M366 262l12 20-22-4z"/>
  <circle class="spark" cx="384" cy="256" r="6"/>

  <circle class="spark" cx="168" cy="132" r="6"/>
  <circle class="spark" cx="344" cy="132" r="6"/>
  <circle class="spark" cx="256" cy="112" r="5"/>
</svg>
