<svg xmlns="http://www.w3.org/2000/svg" viewBox="0 0 512 512">
  <defs>
    <radialGradient id="aura" cx="0.5" cy="0.45" r="0.62">
      <stop offset="0" stop-color="#ffffff" stop-opacity="0.8"/>
      <stop offset="0.35" stop-color="#fbcfe8" stop-opacity="0.45"/>
      <stop offset="0.7" stop-color="#a78bfa" stop-opacity="0.25"/>
      <stop offset="1" stop-color="#0b0f18" stop-opacity="0"/>
    </radialGradient>
    <linearGradient id="wingOuter" x1="0" y1="0" x2="1" y2="1">
      <stop offset="0" stop-color="#f9a8d4"/>
      <stop offset="1" stop-color="#22d3a6"/>
    </linearGradient>
    <linearGradient id="wingInner" x1="0" y1="0" x2="1" y2="0">
      <stop offset="0" stop-color="#fff1f9" stop-opacity="0.9"/>
      <stop offset="1" stop-color="#c7b6ff" stop-opacity="0.4"/>
    </linearGradient>
    <linearGradient id="dressGrad" x1="0" y1="0" x2="0" y2="1">
      <stop offset="0" stop-color="#22d3a6"/>
      <stop offset="1" stop-color="#0ea5e9"/>
    </linearGradient>
    <linearGradient id="hairGrad" x1="0" y1="0" x2="1" y2="0">
      <stop offset="0" stop-color="#7c4dff"/>
      <stop offset="1" stop-color="#f472b6"/>
    </linearGradient>
    <linearGradient id="eyeGrad" x1="0" y1="0" x2="0" y2="1">
      <stop offset="0" stop-color="#0b0f18"/>
      <stop offset="1" stop-color="#3b2f47"/>
    </linearGradient>
  </defs>
  <style>
    .line { stroke: #0b0f18; stroke-width: 6; stroke-linecap: round; stroke-linejoin: round; }
    .skin { fill: #f8d2b4; }
    .hair { fill: url(#hairGrad); }
    .dress { fill: url(#dressGrad); }
    .wing { fill: url(#wingOuter); }
    .wing-inner { fill: url(#wingInner); }
    .eye { fill: url(#eyeGrad); }
    .eye-light { fill: #ffffff; }
    .cheek { fill: #f7a6b2; opacity: 0.6; }
    .spark { fill: #f472b6; }
    .wand { fill: #f1d07a; }
  </style>

  <!-- Aura glow -->
  <circle cx="256" cy="248" r="200" fill="url(#aura)"/>

  <!-- Wings (rounded + soft) -->
  <ellipse class="wing line" cx="128" cy="270" rx="120" ry="160" transform="rotate(-12 128 270)"/>
  <ellipse class="wing line" cx="384" cy="270" rx="120" ry="160" transform="rotate(12 384 270)"/>
  <ellipse class="wing-inner" cx="166" cy="270" rx="72" ry="110" transform="rotate(-8 166 270)"/>
  <ellipse class="wing-inner" cx="346" cy="270" rx="72" ry="110" transform="rotate(8 346 270)"/>

  <!-- Head -->
  <circle class="skin line" cx="256" cy="176" r="78"/>

  <!-- Hair (soft bangs + side curls) -->
  <path class="hair line" d="M164 182c10-80 168-100 184-6-26-14-60-18-90-8-30 10-60 10-94 14z"/>
  <path class="hair line" d="M182 210c-22 54-20 110 12 164 18 30 38 50 62 62 24-12 44-32 62-62 32-54 34-110 12-164-18 28-46 44-74 46-36 2-66-12-76-46z"/>
  <path class="hair line" d="M178 150l-20-42 44 16z"/>
  <path class="hair line" d="M334 150l20-42-44 16z"/>

  <!-- Face -->
  <ellipse class="eye" cx="228" cy="178" rx="14" ry="18"/>
  <ellipse class="eye" cx="284" cy="178" rx="14" ry="18"/>
  <circle class="eye-light" cx="224" cy="172" r="4"/>
  <circle class="eye-light" cx="280" cy="172" r="4"/>
  <circle class="cheek" cx="210" cy="202" r="10"/>
  <circle class="cheek" cx="302" cy="202" r="10"/>
  <path class="line" d="M236 214c12 10 28 10 40 0"/>

  <!-- Body -->
  <path class="skin line" d="M212 252c-18 34-22 70-18 104"/>
  <path class="skin line" d="M300 252c18 34 22 70 18 104"/>
  <path class="dress line" d="M202 252c38-30 92-30 108 0 18 90 6 166-54 226-60-60-72-136-54-226z"/>
  <path class="dress line" d="M228 332c24 20 32 20 56 0"/>

  <!-- Wand -->
  <path class="line" d="M312 306l86-54"/>
  <path class="wand line" d="M402 248l12 22-26-6z"/>
  <circle class="spark" cx="412" cy="244" r="7"/>

  <!-- Sparkles -->
  <circle class="spark" cx="150" cy="120" r="7"/>
  <circle class="spark" cx="362" cy="120" r="7"/>
  <circle class="spark" cx="256" cy="96" r="6"/>
</svg>
