<svg xmlns="http://www.w3.org/2000/svg" viewBox="0 0 512 512">
  <defs>
    <linearGradient id="wingDark" x1="0" y1="0" x2="1" y2="1">
      <stop offset="0" stop-color="#7c4dff"/>
      <stop offset="1" stop-color="#ef4444"/>
    </linearGradient>
    <linearGradient id="coreGlow" x1="0" y1="0" x2="0" y2="1">
      <stop offset="0" stop-color="#ef4444"/>
      <stop offset="1" stop-color="#7c4dff"/>
    </linearGradient>
  </defs>
  <style>
    .line { stroke: #0b0f18; stroke-width: 6; stroke-linecap: round; stroke-linejoin: round; }
    .skin { fill: #7b5151; }
    .body { fill: #2a1f2f; }
    .wing { fill: url(#wingDark); }
    .eye { fill: #ffd1d1; }
    .glow { fill: url(#coreGlow); }
    .rune { stroke: #7c4dff; stroke-width: 5; stroke-linecap: round; }
  </style>

  <!-- Corrupted wings -->
  <path class="wing line" d="M56 268c66-150 250-200 320-86-78 28-140 98-176 170-28 58-70 92-142 88-36-2-62-38-48-76 12-32 26-52 46-96z"/>
  <path class="wing line" d="M456 268c-66-150-250-200-320-86 78 28 140 98 176 170 28 58 70 92 142 88 36-2 62-38 48-76-12-32-26-52-46-96z"/>

  <!-- Head + horns -->
  <circle class="skin line" cx="256" cy="176" r="62"/>
  <path class="line" d="M208 118l-30-32 46 10z"/>
  <path class="line" d="M304 118l30-32-46 10z"/>

  <!-- Face -->
  <circle class="eye" cx="232" cy="176" r="9"/>
  <circle class="eye" cx="280" cy="176" r="9"/>
  <path class="line" d="M228 206c18-12 38-12 56 0"/>
  <path class="line" d="M238 210l-12 14"/>
  <path class="line" d="M274 210l12 14"/>

  <!-- Body -->
  <path class="body line" d="M204 244c36-26 100-26 120 0-12 84-30 156-62 206-32-52-46-126-58-206z"/>
  <circle class="glow" cx="256" cy="102" r="10"/>

  <!-- Corruption runes -->
  <path class="rune" d="M176 320l-28 28"/>
  <path class="rune" d="M336 320l28 28"/>
  <path class="rune" d="M212 356l18-18"/>
  <path class="rune" d="M282 356l18-18"/>
</svg>
