<svg xmlns="http://www.w3.org/2000/svg" viewBox="0 0 512 512">
  <defs>
    <linearGradient id="wingDark" x1="0" y1="0" x2="1" y2="1">
      <stop offset="0" stop-color="#7c4dff"/>
      <stop offset="1" stop-color="#ef4444"/>
    </linearGradient>
    <linearGradient id="coreGlow" x1="0" y1="0" x2="0" y2="1">
      <stop offset="0" stop-color="#ef4444"/>
      <stop offset="1" stop-color="#7c4dff"/>
    </linearGradient>
  </defs>
  <style>
    .line { stroke: #0b0f18; stroke-width: 6; stroke-linecap: round; stroke-linejoin: round; }
    .skin { fill: #7b5151; }
    .body { fill: #2a1f2f; }
    .wing { fill: url(#wingDark); }
    .eye { fill: #ffd1d1; }
    .glow { fill: url(#coreGlow); }
    .rune { stroke: #7c4dff; stroke-width: 5; stroke-linecap: round; }
  </style>

  <path class="wing line" d="M60 260c64-140 234-190 300-80-70 24-126 86-156 150-26 56-64 86-130 82-34-2-60-38-46-74 12-30 22-46 32-78z"/>
  <path class="wing line" d="M452 260c-64-140-234-190-300-80 70 24 126 86 156 150 26 56 64 86 130 82 34-2 60-38 46-74-12-30-22-46-32-78z"/>

  <circle class="skin line" cx="256" cy="176" r="60"/>
  <path class="line" d="M210 122l-26-28 40 8z"/>
  <path class="line" d="M302 122l26-28-40 8z"/>
  <circle class="eye" cx="234" cy="176" r="9"/>
  <circle class="eye" cx="278" cy="176" r="9"/>
  <path class="line" d="M230 206c16-12 34-12 52 0"/>
  <path class="line" d="M242 210l-10 12"/>
  <path class="line" d="M270 210l10 12"/>

  <path class="body line" d="M204 244c34-26 98-26 120 0-10 78-28 146-60 196-32-50-46-118-60-196z"/>
  <circle class="glow" cx="256" cy="104" r="10"/>

  <path class="rune" d="M182 318l-26 26"/>
  <path class="rune" d="M330 318l26 26"/>
  <path class="rune" d="M214 350l16-16"/>
  <path class="rune" d="M282 350l16-16"/>
</svg>
