<svg xmlns="http://www.w3.org/2000/svg" viewBox="0 0 512 512">
  <defs>
    <linearGradient id="wingGrad" x1="0" y1="0" x2="1" y2="1">
      <stop offset="0" stop-color="#7c4dff" stop-opacity="0.95"/>
      <stop offset="1" stop-color="#22d3a6" stop-opacity="0.9"/>
    </linearGradient>
    <linearGradient id="wingInner" x1="0" y1="0" x2="1" y2="0">
      <stop offset="0" stop-color="#f472b6" stop-opacity="0.35"/>
      <stop offset="1" stop-color="#7c4dff" stop-opacity="0.15"/>
    </linearGradient>
    <linearGradient id="dressGrad" x1="0" y1="0" x2="0" y2="1">
      <stop offset="0" stop-color="#22d3a6"/>
      <stop offset="1" stop-color="#128a7d"/>
    </linearGradient>
    <linearGradient id="hairGrad" x1="0" y1="0" x2="1" y2="0">
      <stop offset="0" stop-color="#7c4dff"/>
      <stop offset="1" stop-color="#a78bfa"/>
    </linearGradient>
  </defs>
  <style>
    .line { stroke: #0b0f18; stroke-width: 6; stroke-linecap: round; stroke-linejoin: round; }
    .skin { fill: #f6c7a2; }
    .hair { fill: url(#hairGrad); }
    .dress { fill: url(#dressGrad); }
    .wing { fill: url(#wingGrad); }
    .wing-inner { fill: url(#wingInner); }
    .eye { fill: #0b0f18; }
    .aura { fill: #7c4dff; opacity: 0.15; }
    .spark { fill: #f472b6; opacity: 0.7; }
  </style>
  <circle class="aura" cx="256" cy="256" r="180"/>

  <path class="wing line" d="M92 242c70-120 200-140 250-36-60 18-120 70-150 130-24 48-60 80-110 80-34 0-58-34-46-70 10-30 24-58 56-104z"/>
  <path class="wing line" d="M420 242c-70-120-200-140-250-36 60 18 120 70 150 130 24 48 60 80 110 80 34 0 58-34 46-70-10-30-24-58-56-104z"/>
  <path class="wing-inner" d="M138 260c48-76 132-90 166-36-44 16-84 54-104 94-18 36-40 52-70 52-16 0-30-18-24-36 6-18 16-38 32-74z"/>
  <path class="wing-inner" d="M374 260c-48-76-132-90-166-36 44 16 84 54 104 94 18 36 40 52 70 52 16 0 30-18 24-36-6-18-16-38-32-74z"/>

  <circle class="skin line" cx="256" cy="186" r="66"/>
  <path class="hair line" d="M186 188c12-68 136-92 172-10-34-6-64 4-92 18-28 14-54 18-80 10-14-4-26-10-38-18z"/>
  <path class="hair line" d="M208 138l-10-28 34 12z"/>
  <path class="hair line" d="M304 138l10-28-34 12z"/>

  <circle class="eye" cx="236" cy="184" r="8"/>
  <circle class="eye" cx="276" cy="184" r="8"/>
  <path class="line" d="M234 212c14 12 30 12 44 0"/>

  <path class="skin line" d="M214 260c-12 30-20 66-18 98"/>
  <path class="skin line" d="M298 260c12 30 20 66 18 98"/>
  <path class="dress line" d="M214 258c30-24 74-24 96 0-10 70-22 134-48 188-26-54-38-118-48-188z"/>

  <circle class="spark" cx="174" cy="142" r="6"/>
  <circle class="spark" cx="338" cy="142" r="6"/>
  <circle class="spark" cx="256" cy="120" r="5"/>
</svg>
