<svg xmlns="http://www.w3.org/2000/svg" viewBox="0 0 512 512">
  <defs>
    <radialGradient id="auraGrad" cx="0.5" cy="0.45" r="0.6">
      <stop offset="0" stop-color="#ffffff" stop-opacity="0.75"/>
      <stop offset="0.4" stop-color="#f9a8d4" stop-opacity="0.35"/>
      <stop offset="0.7" stop-color="#7c4dff" stop-opacity="0.18"/>
      <stop offset="1" stop-color="#0b0f18" stop-opacity="0"/>
    </radialGradient>
    <linearGradient id="wingOuter" x1="0" y1="0" x2="1" y2="1">
      <stop offset="0" stop-color="#f9a8d4"/>
      <stop offset="1" stop-color="#22d3a6"/>
    </linearGradient>
    <linearGradient id="wingInner" x1="0" y1="0" x2="1" y2="0">
      <stop offset="0" stop-color="#ffe4f1" stop-opacity="0.85"/>
      <stop offset="1" stop-color="#c7b6ff" stop-opacity="0.35"/>
    </linearGradient>
    <linearGradient id="dressGrad" x1="0" y1="0" x2="0" y2="1">
      <stop offset="0" stop-color="#22d3a6"/>
      <stop offset="1" stop-color="#0ea5e9"/>
    </linearGradient>
    <linearGradient id="hairGrad" x1="0" y1="0" x2="1" y2="0">
      <stop offset="0" stop-color="#7c4dff"/>
      <stop offset="1" stop-color="#f472b6"/>
    </linearGradient>
  </defs>
  <style>
    .line { stroke: #0b0f18; stroke-width: 6; stroke-linecap: round; stroke-linejoin: round; }
    .skin { fill: #f8d2b4; }
    .hair { fill: url(#hairGrad); }
    .dress { fill: url(#dressGrad); }
    .wing { fill: url(#wingOuter); }
    .wing-inner { fill: url(#wingInner); }
    .eye { fill: #0b0f18; }
    .eye-light { fill: #ffffff; }
    .cheek { fill: #f7a6b2; opacity: 0.6; }
    .spark { fill: #f472b6; }
    .wand { fill: #f1d07a; }
  </style>

  <!-- Aura glow -->
  <circle cx="256" cy="246" r="190" fill="url(#auraGrad)"/>

  <!-- Wings -->
  <ellipse class="wing line" cx="132" cy="258" rx="122" ry="176" transform="rotate(-18 132 258)"/>
  <ellipse class="wing line" cx="380" cy="258" rx="122" ry="176" transform="rotate(18 380 258)"/>
  <ellipse class="wing-inner" cx="168" cy="258" rx="72" ry="112" transform="rotate(-12 168 258)"/>
  <ellipse class="wing-inner" cx="344" cy="258" rx="72" ry="112" transform="rotate(12 344 258)"/>

  <!-- Head -->
  <circle class="skin line" cx="256" cy="172" r="70"/>
  <path class="hair line" d="M178 178c10-72 148-94 178-6-24-12-54-14-82-6-28 8-50 8-96 12z"/>
  <path class="hair line" d="M178 190c-22 54-18 116 14 166 18 28 38 46 64 58 26-12 46-30 64-58 32-50 36-112 14-166-18 24-46 40-78 42-36 2-64-12-78-42z"/>

  <!-- Face -->
  <ellipse class="eye" cx="232" cy="178" rx="10" ry="13"/>
  <ellipse class="eye" cx="280" cy="178" rx="10" ry="13"/>
  <circle class="eye-light" cx="228" cy="174" r="3"/>
  <circle class="eye-light" cx="276" cy="174" r="3"/>
  <circle class="cheek" cx="214" cy="198" r="9"/>
  <circle class="cheek" cx="298" cy="198" r="9"/>
  <path class="line" d="M236 208c12 10 28 10 40 0"/>

  <!-- Body -->
  <path class="skin line" d="M214 248c-18 34-20 72-16 104"/>
  <path class="skin line" d="M298 248c18 34 20 72 16 104"/>
  <path class="dress line" d="M206 248c36-28 84-28 100 0 14 84 4 156-50 214-54-58-64-130-50-214z"/>
  <path class="dress line" d="M228 320c22 20 34 20 56 0"/>

  <!-- Wand -->
  <path class="line" d="M308 298l84-52"/>
  <path class="wand line" d="M394 242l12 22-24-6z"/>
  <circle class="spark" cx="404" cy="238" r="7"/>

  <!-- Sparkles -->
  <circle class="spark" cx="150" cy="122" r="7"/>
  <circle class="spark" cx="362" cy="122" r="7"/>
  <circle class="spark" cx="256" cy="102" r="6"/>
</svg>
