<svg xmlns="http://www.w3.org/2000/svg" width="80" height="80" viewBox="0 0 80 80">
  <defs>
    <radialGradient id="skinGrad" cx="50%" cy="40%" r="50%">
      <stop offset="0%" style="stop-color:#fef3c7"/>
      <stop offset="100%" style="stop-color:#fcd5a7"/>
    </radialGradient>
    <radialGradient id="eyeGrad" cx="30%" cy="30%" r="50%">
      <stop offset="0%" style="stop-color:#5eead4"/>
      <stop offset="100%" style="stop-color:#14b8a6"/>
    </radialGradient>
  </defs>
  <!-- Head circle -->
  <ellipse cx="40" cy="45" rx="35" ry="38" fill="url(#skinGrad)" stroke="#d4a574" stroke-width="2"/>
  <!-- Hair -->
  <path d="M10 35 Q20 5, 40 8 Q60 5, 70 35 Q65 25, 55 28 Q45 15, 35 28 Q25 25, 15 35 Z" fill="#1a1a1a"/>
  <!-- Eyes -->
  <ellipse cx="28" cy="45" rx="8" ry="10" fill="white"/>
  <ellipse cx="52" cy="45" rx="8" ry="10" fill="white"/>
  <circle cx="30" cy="45" r="5" fill="url(#eyeGrad)"/>
  <circle cx="54" cy="45" r="5" fill="url(#eyeGrad)"/>
  <circle cx="31" cy="43" r="2" fill="white"/>
  <circle cx="55" cy="43" r="2" fill="white"/>
  <!-- Mouth -->
  <path d="M32 60 Q40 66, 48 60" stroke="#a67c52" stroke-width="2" fill="none" stroke-linecap="round"/>
</svg>
