<svg xmlns="http://www.w3.org/2000/svg" viewBox="0 0 48 48">
  <defs>
    <linearGradient id="magicGrad" x1="0%" y1="0%" x2="100%" y2="100%">
      <stop offset="0%" stop-color="#06b6d4"/>
      <stop offset="50%" stop-color="#8b5cf6"/>
      <stop offset="100%" stop-color="#ec4899"/>
    </linearGradient>
    <radialGradient id="magicCore" cx="50%" cy="50%" r="50%">
      <stop offset="0%" stop-color="#fff"/>
      <stop offset="50%" stop-color="#c4b5fd"/>
      <stop offset="100%" stop-color="#8b5cf6"/>
    </radialGradient>
    <filter id="glow"><feGaussianBlur stdDeviation="2.5" result="b"/><feMerge><feMergeNode in="b"/><feMergeNode in="SourceGraphic"/></feMerge></filter>
  </defs>
  <polygon points="24,2 28,18 44,18 31,28 35,44 24,34 13,44 17,28 4,18 20,18" fill="url(#magicGrad)" filter="url(#glow)"/>
  <polygon points="24,10 26,18 34,18 28,23 30,31 24,26 18,31 20,23 14,18 22,18" fill="url(#magicCore)"/>
  <circle cx="24" cy="20" r="3" fill="#fff" opacity="0.9"/>
  <circle cx="18" cy="12" r="1.5" fill="#06b6d4" opacity="0.7"/>
  <circle cx="32" cy="14" r="1" fill="#ec4899" opacity="0.7"/>
  <circle cx="14" cy="28" r="1" fill="#8b5cf6" opacity="0.6"/>
  <circle cx="36" cy="30" r="1.5" fill="#06b6d4" opacity="0.6"/>
</svg>