<svg xmlns="http://www.w3.org/2000/svg" viewBox="0 0 48 48">
  <defs>
    <linearGradient id="essenceCore" x1="50%" y1="0%" x2="50%" y2="100%">
      <stop offset="0%" stop-color="#06b6d4"/>
      <stop offset="50%" stop-color="#8b5cf6"/>
      <stop offset="100%" stop-color="#ec4899"/>
    </linearGradient>
    <radialGradient id="essenceGlow" cx="50%" cy="50%" r="50%">
      <stop offset="0%" stop-color="#06b6d4" stop-opacity="0.8"/>
      <stop offset="100%" stop-color="#8b5cf6" stop-opacity="0"/>
    </radialGradient>
    <filter id="glow"><feGaussianBlur stdDeviation="3" result="b"/><feMerge><feMergeNode in="b"/><feMergeNode in="SourceGraphic"/></feMerge></filter>
  </defs>
  <circle cx="24" cy="24" r="20" fill="url(#essenceGlow)"/>
  <path d="M24 6c-2 6-6 10-12 12 6 2 10 6 12 12 2-6 6-10 12-12-6-2-10-6-12-12z" fill="url(#essenceCore)" filter="url(#glow)"/>
  <path d="M24 14c-1 3-3 5-6 6 3 1 5 3 6 6 1-3 3-5 6-6-3-1-5-3-6-6z" fill="#fff" opacity="0.6"/>
  <circle cx="24" cy="24" r="3" fill="#fff" opacity="0.8"/>
  <circle cx="20" cy="18" r="1" fill="#fff" opacity="0.5"/>
</svg>